<svg width="95" height="17" viewBox="0 0 95 17" fill="none" xmlns="http://www.w3.org/2000/svg">
<g filter="url(#filter0_d_2556_19906)">
<path fill-rule="evenodd" clip-rule="evenodd" d="M10 6C11.6569 6 13 4.65685 13 3C13 1.34315 11.6569 0 10 0C8.34315 0 7 1.34315 7 3C7 4.65685 8.34315 6 10 6ZM4 11C5.65685 11 7 9.65685 7 8C7 6.34315 5.65685 5 4 5C2.34315 5 1 6.34315 1 8C1 9.65685 2.34315 11 4 11ZM13 13C13 14.6569 11.6569 16 10 16C8.34315 16 7 14.6569 7 13C7 11.3431 8.34315 10 10 10C11.6569 10 13 11.3431 13 13ZM9.99228 6.87597C9.4254 6.94683 9 7.42871 9 8C9 8.57129 9.4254 9.05317 9.99228 9.12403L15.0154 9.75193C16.0692 9.88365 17 9.06198 17 8C17 6.93802 16.0692 6.11635 15.0154 6.24807L9.99228 6.87597Z" fill="#7C3AED"/>
</g>
<path d="M89.2994 6.81004V5.41004H90.6994V3.63204L92.2814 3.17004V5.41004H94.5634V6.81004H92.2814V10.422C92.2814 10.8794 92.412 11.164 92.6734 11.276C92.944 11.388 93.1867 11.444 93.4014 11.444C93.7374 11.444 94.1434 11.3694 94.6194 11.22V12.774C94.1154 12.914 93.6534 12.984 93.2334 12.984C92.6827 12.984 92.1227 12.8254 91.5534 12.508C90.984 12.1814 90.6994 11.4907 90.6994 10.436V6.81004H89.2994Z" fill="#100532"/>
<path d="M82.733 7.52406C82.733 6.82406 83.0177 6.27806 83.587 5.88606C84.1564 5.48472 84.8844 5.28406 85.771 5.28406C86.8257 5.28406 87.7824 5.54072 88.641 6.05406V7.60806C87.5584 6.98272 86.6017 6.67006 85.771 6.67006C85.3604 6.67006 85.0244 6.74939 84.763 6.90806C84.511 7.05739 84.385 7.25806 84.385 7.51006C84.385 7.59406 84.399 7.67339 84.427 7.74806C84.4644 7.81339 84.5204 7.87406 84.595 7.93006C84.679 7.98606 84.7584 8.03272 84.833 8.07006C84.917 8.10739 85.0337 8.14939 85.183 8.19606C85.3324 8.23339 85.4584 8.26606 85.561 8.29406C85.6637 8.31272 85.813 8.34539 86.009 8.39206C86.2144 8.43872 86.3777 8.47606 86.499 8.50406C87.3577 8.70939 87.9784 8.99872 88.361 9.37206C88.753 9.74539 88.9537 10.2027 88.963 10.7441C88.963 11.2481 88.8044 11.6727 88.487 12.0181C88.179 12.3634 87.8104 12.6061 87.381 12.7461C86.9517 12.8767 86.4804 12.9421 85.967 12.9421C84.9124 12.9421 83.8857 12.6201 82.887 11.9761V10.3381C83.223 10.6274 83.685 10.8981 84.273 11.1501C84.861 11.4021 85.4257 11.5281 85.967 11.5281C86.331 11.5281 86.6437 11.4581 86.905 11.3181C87.1757 11.1687 87.311 10.9727 87.311 10.7301C87.311 10.4781 87.157 10.2727 86.849 10.1141C86.541 9.94606 86.0604 9.79672 85.407 9.66606C84.4924 9.47939 83.8157 9.22272 83.377 8.89606C82.9477 8.56006 82.733 8.10273 82.733 7.52406Z" fill="#100532"/>
<path d="M75.5331 6.40406C76.2798 5.65739 77.1758 5.28406 78.2211 5.28406C79.1544 5.28406 79.9664 5.58739 80.6571 6.19406C81.3571 6.79139 81.7864 7.54272 81.9451 8.44806C82.0011 8.67206 82.0291 8.89606 82.0291 9.12006C82.0291 9.31606 82.0057 9.51206 81.9591 9.70806H75.9951C76.0884 10.2587 76.3404 10.6974 76.7511 11.0241C77.1711 11.3507 77.6611 11.5141 78.2211 11.5141C79.0798 11.5141 79.7658 11.2061 80.2791 10.5901L81.7071 10.9681C81.4084 11.5654 80.9277 12.0461 80.2651 12.4101C79.6118 12.7647 78.9304 12.9421 78.2211 12.9421C77.1478 12.9421 76.2424 12.5687 75.5051 11.8221C74.7771 11.0754 74.4131 10.1747 74.4131 9.12006C74.4131 8.05606 74.7864 7.15072 75.5331 6.40406ZM75.9951 8.47606H80.3911C80.2978 7.98139 80.0504 7.56606 79.6491 7.23006C79.2571 6.88472 78.7764 6.71206 78.2071 6.71206C77.6378 6.71206 77.1524 6.88472 76.7511 7.23006C76.3498 7.56606 76.0977 7.98139 75.9951 8.47606Z" fill="#100532"/>
<path d="M67.1996 3.03003H75.0816V4.58403H72.0296V12.83H70.3636V4.58403H67.1996V3.03003Z" fill="#100532"/>
<path d="M54.4084 12.8441V3.01611H57.8944C59.2944 3.01611 60.4797 3.48745 61.4504 4.43011C62.4211 5.37278 62.9064 6.53945 62.9064 7.93011C62.9064 7.93945 62.9064 7.95345 62.9064 7.97211C62.9064 9.34411 62.4257 10.5014 61.4644 11.4441C60.5031 12.3774 59.3131 12.8441 57.8944 12.8441H54.4084ZM56.0744 11.2901H57.8944C58.8931 11.2901 59.7051 10.9728 60.3304 10.3381C60.9557 9.69411 61.2684 8.89145 61.2684 7.93011C61.2684 6.95011 60.9511 6.14745 60.3164 5.52211C59.6911 4.88745 58.8837 4.57011 57.8944 4.57011H56.0744V11.2901Z" fill="#100532"/>
<path d="M46.4983 3.03003V7.17403H51.4683V3.03003H53.1343V12.83H51.4683V8.67203H46.4983V12.83H44.8463V3.03003H46.4983Z" fill="#100532"/>
<path d="M35.3492 12.8441V3.01611H38.8352C40.2352 3.01611 41.4206 3.48745 42.3912 4.43011C43.3619 5.37278 43.8472 6.53945 43.8472 7.93011C43.8472 7.93945 43.8472 7.95345 43.8472 7.97211C43.8472 9.34411 43.3666 10.5014 42.4052 11.4441C41.4439 12.3774 40.2539 12.8441 38.8352 12.8441H35.3492ZM37.0152 11.2901H38.8352C39.8339 11.2901 40.6459 10.9728 41.2712 10.3381C41.8966 9.69411 42.2092 8.89145 42.2092 7.93011C42.2092 6.95011 41.8919 6.14745 41.2572 5.52211C40.6319 4.88745 39.8246 4.57011 38.8352 4.57011H37.0152V11.2901Z" fill="#100532"/>
<path d="M25 12.83L28.486 3.03003H31.132L34.562 12.83H32.826L32.084 10.688H27.506L26.736 12.83H25ZM31.58 9.17603L29.816 3.98203L27.996 9.17603H31.58Z" fill="#100532"/>
<defs>
<filter id="filter0_d_2556_19906" x="0.5" y="0" width="16.5" height="16.5" filterUnits="userSpaceOnUse" color-interpolation-filters="sRGB">
<feFlood flood-opacity="0" result="BackgroundImageFix"/>
<feColorMatrix in="SourceAlpha" type="matrix" values="0 0 0 0 0 0 0 0 0 0 0 0 0 0 0 0 0 0 127 0" result="hardAlpha"/>
<feOffset dx="-0.5" dy="0.5"/>
<feComposite in2="hardAlpha" operator="out"/>
<feColorMatrix type="matrix" values="0 0 0 0 0.0627451 0 0 0 0 0.0196078 0 0 0 0 0.196078 0 0 0 1 0"/>
<feBlend mode="normal" in2="BackgroundImageFix" result="effect1_dropShadow_2556_19906"/>
<feBlend mode="normal" in="SourceGraphic" in2="effect1_dropShadow_2556_19906" result="shape"/>
</filter>
</defs>
</svg>
