<svg width="48" height="48" viewBox="0 0 48 48" fill="none" xmlns="http://www.w3.org/2000/svg">
<rect width="48" height="48" fill="#ECFDF5"/>
<path fill-rule="evenodd" clip-rule="evenodd" d="M13.3335 11.6665C13.3335 11.1142 13.7812 10.6665 14.3335 10.6665H33.6668C34.2191 10.6665 34.6668 11.1142 34.6668 11.6665V35.9998C34.6668 36.3536 34.4799 36.6811 34.1752 36.861C33.8706 37.0408 33.4935 37.0463 33.1838 36.8754L24.0002 31.8086L14.8166 36.8754C14.5068 37.0463 14.1298 37.0408 13.8251 36.861C13.5204 36.6811 13.3335 36.3536 13.3335 35.9998V11.6665ZM28.5073 19.5736C28.8978 19.1831 28.8978 18.5499 28.5073 18.1594C28.1167 17.7689 27.4836 17.7689 27.0931 18.1594L22.6668 22.5856L21.1739 21.0927C20.7834 20.7022 20.1502 20.7022 19.7597 21.0927C19.3692 21.4833 19.3692 22.1164 19.7597 22.5069L21.9597 24.7069C22.1473 24.8945 22.4016 24.9998 22.6668 24.9998C22.932 24.9998 23.1864 24.8945 23.3739 24.7069L28.5073 19.5736Z" fill="#059669"/>
</svg>
