<svg width="74" height="24" viewBox="0 0 74 24" fill="none" xmlns="http://www.w3.org/2000/svg">
<path d="M32.6191 15.914V8.3871H33.9095V15.914H32.6191Z" fill="#051132"/>
<path d="M36.0815 9.43011C36.8198 8.67742 37.7195 8.30108 38.7804 8.30108C39.8342 8.30108 40.7338 8.67742 41.4793 9.43011C42.2248 10.1828 42.5976 11.0932 42.5976 12.1613C42.5976 13.1147 42.2858 13.957 41.6621 14.6882L42.8234 15.914H41.4363L40.8987 15.3441C40.2679 15.7814 39.5618 16 38.7804 16C37.7195 16 36.8163 15.6272 36.0707 14.8817C35.3324 14.129 34.9632 13.2222 34.9632 12.1613C34.9632 11.0932 35.336 10.1828 36.0815 9.43011ZM36.974 14.0323C37.4542 14.5484 38.0564 14.8065 38.7804 14.8065C39.2392 14.8065 39.6657 14.6846 40.06 14.4409L38.275 12.5699H39.6514L40.7911 13.7527C41.1424 13.3011 41.318 12.7706 41.318 12.1613C41.318 11.4229 41.0743 10.7957 40.5868 10.2796C40.1066 9.76344 39.5044 9.50538 38.7804 9.50538C38.0636 9.50538 37.4614 9.76344 36.974 10.2796C36.4865 10.7957 36.2428 11.4229 36.2428 12.1613C36.2428 12.8996 36.4865 13.5233 36.974 14.0323Z" fill="#051132"/>
<path d="M44.1824 10.9785C44.7559 10.405 45.4477 10.1183 46.2577 10.1183C47.0677 10.1183 47.7559 10.4086 48.3222 10.9892C48.8957 11.5627 49.1824 12.2509 49.1824 13.0538C49.1824 13.8638 48.8957 14.5591 48.3222 15.1398C47.7487 15.7133 47.0606 16 46.2577 16C45.4477 16 44.7559 15.7133 44.1824 15.1398C43.609 14.5591 43.3222 13.8638 43.3222 13.0538C43.3222 12.2437 43.609 11.552 44.1824 10.9785ZM44.4835 13.0538C44.4835 13.5484 44.6555 13.9749 44.9996 14.3333C45.3437 14.6918 45.7631 14.871 46.2577 14.871C46.7451 14.871 47.1609 14.6918 47.505 14.3333C47.8491 13.9749 48.0211 13.5484 48.0211 13.0538C48.0211 12.5591 47.8491 12.1362 47.505 11.7849C47.1681 11.4265 46.7523 11.2473 46.2577 11.2473C45.7631 11.2473 45.3437 11.4265 44.9996 11.7849C44.6555 12.1362 44.4835 12.5591 44.4835 13.0538Z" fill="#051132"/>
<path d="M50.0262 10.2151H51.2627V10.9677C51.7 10.4014 52.2914 10.1183 53.0369 10.1183C53.6892 10.1183 54.2484 10.3297 54.7143 10.7527C55.1874 11.1685 55.424 11.724 55.424 12.4194V15.914H54.1874V12.7527C54.1874 12.3011 54.0512 11.9427 53.7788 11.6774C53.5136 11.405 53.1838 11.2688 52.7896 11.2688C52.338 11.2688 51.9688 11.4337 51.6821 11.7634C51.4025 12.086 51.2627 12.491 51.2627 12.9785V15.914H50.0262V10.2151Z" fill="#051132"/>
<path d="M56.4635 15.914V8.3871H57.7001V15.914H56.4635Z" fill="#051132"/>
<path d="M60.169 10.2151V15.914H58.9324V10.2151H60.169ZM58.997 8.22581C59.1547 8.07527 59.3446 8 59.5669 8C59.7891 8 59.9755 8.07527 60.126 8.22581C60.2837 8.36918 60.3626 8.55197 60.3626 8.77419C60.3626 8.99642 60.2873 9.17921 60.1367 9.32258C59.979 9.47312 59.7891 9.54839 59.5669 9.54839C59.3446 9.54839 59.1547 9.4767 58.997 9.33333C58.8393 9.1828 58.7604 8.99642 58.7604 8.77419C58.7604 8.55914 58.8393 8.37634 58.997 8.22581Z" fill="#051132"/>
<path d="M61.3878 10.2151H62.6244V10.9677C63.0617 10.4014 63.6531 10.1183 64.3986 10.1183C65.0509 10.1183 65.61 10.3297 66.076 10.7527C66.5491 11.1685 66.7857 11.724 66.7857 12.4194V15.914H65.5491V12.7527C65.5491 12.3011 65.4129 11.9427 65.1405 11.6774C64.8753 11.405 64.5455 11.2688 64.1513 11.2688C63.6996 11.2688 63.3305 11.4337 63.0437 11.7634C62.7642 12.086 62.6244 12.491 62.6244 12.9785V15.914H61.3878V10.2151Z" fill="#051132"/>
<path d="M68.5026 10.9785C69.0761 10.405 69.7643 10.1183 70.5671 10.1183C71.284 10.1183 71.9076 10.3513 72.4381 10.8172C72.9757 11.276 73.3055 11.853 73.4273 12.5484C73.4704 12.7204 73.4919 12.8925 73.4919 13.0645C73.4919 13.2151 73.4739 13.3656 73.4381 13.5161H68.8575C68.9292 13.9391 69.1227 14.276 69.4381 14.5269C69.7607 14.7778 70.137 14.9032 70.5671 14.9032C71.2266 14.9032 71.7535 14.6667 72.1478 14.1935L73.2446 14.4839C73.0152 14.9427 72.646 15.3118 72.137 15.5914C71.6352 15.8638 71.1119 16 70.5671 16C69.7428 16 69.0474 15.7133 68.4811 15.1398C67.922 14.5663 67.6424 13.8746 67.6424 13.0645C67.6424 12.2473 67.9292 11.552 68.5026 10.9785ZM68.8575 12.5699H72.2338C72.1621 12.19 71.9722 11.871 71.6639 11.6129C71.3628 11.3477 70.9937 11.2151 70.5564 11.2151C70.1191 11.2151 69.7464 11.3477 69.4381 11.6129C69.1299 11.871 68.9363 12.19 68.8575 12.5699Z" fill="#051132"/>
<g clip-path="url(#clip0_2556_19918)">
<path fill-rule="evenodd" clip-rule="evenodd" d="M6.82369 4.22584C6.84344 4.29953 6.85736 4.37342 6.86575 4.44701C6.87227 4.50427 6.87554 4.5329 6.88723 4.54896C6.89812 4.56393 6.91128 4.57289 6.9292 4.57754C6.94842 4.58253 6.97412 4.57564 7.0255 4.56188L8.98774 4.0361C9.02848 4.02518 9.04885 4.01972 9.06654 4.02348C9.0821 4.02679 9.09621 4.03494 9.10685 4.04676C9.11895 4.06019 9.12441 4.08056 9.13532 4.12131L9.69223 6.19971C9.70861 6.26085 9.7168 6.29141 9.70997 6.31257C9.7037 6.33199 9.69191 6.34613 9.67393 6.35578C9.65434 6.3663 9.62091 6.36358 9.55405 6.35812C9.30608 6.33791 9.0433 6.36014 8.77944 6.43084C7.77498 6.69999 7.13525 7.56959 7.35056 8.37316C7.56588 9.17672 8.5547 9.60996 9.55916 9.34082C9.82303 9.27011 10.0617 9.15798 10.2664 9.01648C10.3215 8.97833 10.3491 8.95926 10.3713 8.95857C10.3917 8.95795 10.409 8.96429 10.4242 8.97797C10.4407 8.99288 10.4489 9.02345 10.4652 9.08459L11.0223 11.1634C11.0332 11.2042 11.0386 11.2246 11.0349 11.2422C11.0316 11.2578 11.0234 11.2719 11.0116 11.2826C10.9982 11.2947 10.9778 11.3001 10.9371 11.311L8.9752 11.8367C8.92383 11.8505 8.89815 11.8574 8.88399 11.8713C8.8708 11.8843 8.86389 11.8986 8.86193 11.917C8.85983 11.9368 8.87131 11.9632 8.89426 12.016C8.92371 12.0838 8.94852 12.1546 8.96822 12.2281C9.18354 13.0317 8.70667 13.8576 7.9031 14.073C7.09953 14.2883 6.27356 13.8114 6.05824 13.0078C6.03854 12.9343 6.02464 12.8606 6.01625 12.7872C6.0097 12.7299 6.00643 12.7013 5.99474 12.6853C5.98385 12.6703 5.97069 12.6613 5.95277 12.6567C5.93355 12.6517 5.90787 12.6586 5.8565 12.6724L3.8949 13.198C3.85416 13.2089 3.83379 13.2143 3.8161 13.2106C3.80054 13.2073 3.78643 13.1991 3.77579 13.1873C3.76369 13.1739 3.75823 13.1535 3.74732 13.1128L3.19032 11.034C3.17394 10.9729 3.16575 10.9423 3.17259 10.9212C3.17886 10.9018 3.19065 10.8876 3.20862 10.878C3.22821 10.8675 3.26164 10.8702 3.32849 10.8756C3.57641 10.8958 3.83914 10.8736 4.10294 10.8029C5.10741 10.5337 5.74713 9.66414 5.53182 8.86058C5.3165 8.05701 4.32768 7.62378 3.32322 7.89292C3.05941 7.96361 2.82077 8.07571 2.61616 8.21716C2.56098 8.2553 2.53339 8.27437 2.51117 8.27506C2.49078 8.27568 2.4735 8.26933 2.45836 8.25565C2.44186 8.24075 2.43367 8.21018 2.41729 8.14905L1.86038 6.07062C1.84946 6.02988 1.844 6.00951 1.84776 5.99182C1.85107 5.97626 1.85922 5.96215 1.87104 5.95151C1.88447 5.93941 1.90484 5.93395 1.94559 5.92303L3.90696 5.39748C3.95835 5.38372 3.98404 5.37683 3.99819 5.3629C4.01139 5.34991 4.0183 5.33557 4.02025 5.31716C4.02235 5.29741 4.01086 5.27098 3.98788 5.21813C3.95834 5.15021 3.93346 5.07926 3.91371 5.00556C3.6984 4.202 4.17527 3.37603 4.97884 3.16071C5.78241 2.9454 6.60838 3.42227 6.82369 4.22584Z" fill="url(#paint0_linear_2556_19918)"/>
<path fill-rule="evenodd" clip-rule="evenodd" d="M18.9305 11.2156C18.9503 11.2892 18.9642 11.363 18.9726 11.4365C18.9791 11.4937 18.9824 11.5224 18.9941 11.5384C19.005 11.5534 19.0181 11.5623 19.036 11.567C19.0553 11.572 19.0809 11.5651 19.1323 11.5513L21.0946 11.0255C21.1353 11.0146 21.1557 11.0092 21.1734 11.0129C21.1889 11.0162 21.2031 11.0244 21.2137 11.0362C21.2258 11.0496 21.2313 11.07 21.2422 11.1108L21.7991 13.1893C21.8155 13.2504 21.8237 13.281 21.8169 13.3022C21.8106 13.3216 21.7988 13.3357 21.7808 13.3454C21.7612 13.3559 21.7278 13.3532 21.661 13.3477C21.413 13.3275 21.1503 13.3498 20.8865 13.4204C19.8821 13.6896 19.2423 14.5592 19.4577 15.3628C19.673 16.1663 20.6618 16.5996 21.6663 16.3304C21.9301 16.2597 22.1687 16.1476 22.3733 16.0062C22.4285 15.9681 22.4561 15.949 22.4783 15.9483C22.4987 15.9477 22.516 15.954 22.5311 15.9677C22.5476 15.9826 22.5558 16.0132 22.5722 16.0743L23.1291 18.1529C23.14 18.1936 23.1455 18.214 23.1417 18.2317C23.1384 18.2472 23.1303 18.2614 23.1185 18.272C23.105 18.2841 23.0846 18.2896 23.0439 18.3005L21.0819 18.8262C21.0305 18.8399 21.0049 18.8468 20.9907 18.8608C20.9775 18.8738 20.9706 18.8881 20.9686 18.9065C20.9665 18.9262 20.978 18.9527 21.001 19.0055C21.0305 19.0734 21.0553 19.1443 21.0751 19.2179C21.2904 20.0215 20.8135 20.8474 20.0099 21.0627C19.2064 21.278 18.3804 20.8012 18.1651 19.9976C18.1454 19.924 18.1315 19.8502 18.1231 19.7767C18.1165 19.7194 18.1133 19.6908 18.1016 19.6747C18.0907 19.6598 18.0775 19.6508 18.0596 19.6461C18.0404 19.6412 18.0147 19.648 17.9633 19.6618L16.0018 20.1874C15.961 20.1983 15.9406 20.2038 15.923 20.2C15.9074 20.1967 15.8933 20.1886 15.8826 20.1767C15.8705 20.1633 15.8651 20.1429 15.8542 20.1022L15.2972 18.0236C15.2808 17.9625 15.2726 17.9319 15.2795 17.9107C15.2857 17.8913 15.2975 17.8772 15.3155 17.8675C15.3351 17.857 15.3685 17.8597 15.4354 17.8652C15.6835 17.8855 15.9464 17.8632 16.2104 17.7925C17.2148 17.5234 17.8546 16.6537 17.6392 15.8502C17.4239 15.0466 16.4351 14.6134 15.4306 14.8825C15.1667 14.9533 14.9279 15.0655 14.7232 15.207C14.668 15.2452 14.6404 15.2643 14.6182 15.265C14.5978 15.2656 14.5805 15.2593 14.5653 15.2456C14.5488 15.2307 14.5407 15.2001 14.5243 15.139L13.9672 13.0601C13.9563 13.0193 13.9509 12.9989 13.9546 12.9813C13.9579 12.9657 13.9661 12.9516 13.9779 12.9409C13.9913 12.9289 14.0117 12.9234 14.0524 12.9125L16.0137 12.387C16.0651 12.3732 16.0907 12.3663 16.1049 12.3524C16.1181 12.3394 16.125 12.3251 16.127 12.3067C16.1291 12.2869 16.1176 12.2605 16.0946 12.2076C16.0651 12.1398 16.0403 12.0689 16.0206 11.9953C15.8053 11.1918 16.2821 10.3658 17.0857 10.1505C17.8893 9.93517 18.7152 10.412 18.9305 11.2156Z" fill="url(#paint1_linear_2556_19918)"/>
<path fill-rule="evenodd" clip-rule="evenodd" d="M11.5973 5.67481C11.6708 5.65511 11.7446 5.6412 11.818 5.63281C11.8752 5.62627 11.9039 5.623 11.9199 5.61131C11.9349 5.60041 11.9438 5.58725 11.9485 5.56934C11.9535 5.55011 11.9466 5.52443 11.9328 5.47306L11.4072 3.51143C11.3963 3.47068 11.3908 3.45031 11.3946 3.43263C11.3979 3.41707 11.406 3.40296 11.4179 3.39231C11.4313 3.38022 11.4517 3.37476 11.4924 3.36384L13.5712 2.80682C13.6324 2.79044 13.663 2.78225 13.6841 2.78908C13.7035 2.79535 13.7177 2.80715 13.7273 2.82512C13.7378 2.84471 13.7351 2.87815 13.7297 2.94502C13.7094 3.19303 13.7316 3.45588 13.8024 3.7198C14.0715 4.72426 14.9411 5.36399 15.7447 5.14867C16.5482 4.93336 16.9815 3.94453 16.7123 2.94008C16.6416 2.67615 16.5294 2.43741 16.3879 2.23274C16.3498 2.17756 16.3307 2.14997 16.33 2.12774C16.3294 2.10735 16.3357 2.09007 16.3494 2.07493C16.3643 2.05843 16.3949 2.05024 16.456 2.03385L18.5346 1.47691C18.5753 1.46599 18.5957 1.46053 18.6134 1.46429C18.6289 1.4676 18.643 1.47574 18.6537 1.48756C18.6658 1.501 18.6712 1.52137 18.6822 1.56212L19.2078 3.52367C19.2215 3.57503 19.2284 3.60072 19.2423 3.61487C19.2553 3.62806 19.2696 3.63498 19.2881 3.63693C19.3078 3.63903 19.3342 3.62755 19.3871 3.60459C19.4549 3.57514 19.5257 3.55032 19.5992 3.53061C20.4028 3.31529 21.2288 3.79217 21.4441 4.59573C21.6594 5.3993 21.1825 6.22527 20.379 6.44058C20.3054 6.46029 20.2317 6.4742 20.1582 6.48259C20.101 6.48913 20.0724 6.4924 20.0563 6.50409C20.0413 6.51498 20.0324 6.52814 20.0277 6.54606C20.0228 6.56528 20.0296 6.59097 20.0434 6.64233L20.5691 8.60425C20.58 8.64499 20.5855 8.66537 20.5817 8.68305C20.5784 8.69861 20.5703 8.71272 20.5584 8.72336C20.545 8.73546 20.5246 8.74092 20.4839 8.75184L18.4056 9.30872C18.3444 9.3251 18.3139 9.33329 18.2927 9.32646C18.2733 9.32019 18.2592 9.3084 18.2495 9.29042C18.239 9.27083 18.2417 9.23741 18.2472 9.17055C18.2673 8.92264 18.2451 8.65993 18.1744 8.39613C17.9053 7.39167 17.0357 6.75194 16.2321 6.96726C15.4285 7.18257 14.9953 8.1714 15.2644 9.17585C15.3351 9.43965 15.4472 9.67829 15.5887 9.88289C15.6268 9.93807 15.6459 9.96565 15.6466 9.98788C15.6472 10.0083 15.6408 10.0256 15.6272 10.0407C15.6123 10.0572 15.5817 10.0654 15.5206 10.0818L13.4417 10.6388C13.401 10.6497 13.3806 10.6551 13.3629 10.6514C13.3474 10.6481 13.3333 10.6399 13.3226 10.6281C13.3105 10.6147 13.3051 10.5943 13.2941 10.5536L12.7685 8.59173C12.7547 8.54037 12.7478 8.51468 12.7339 8.50053C12.7209 8.48734 12.7066 8.48042 12.6882 8.47846C12.6684 8.47637 12.642 8.48785 12.5892 8.5108C12.5214 8.54026 12.4506 8.56508 12.377 8.58479C11.5734 8.8001 10.7475 8.32323 10.5322 7.51966C10.3168 6.7161 10.7937 5.89013 11.5973 5.67481Z" fill="#53A8F6"/>
<path fill-rule="evenodd" clip-rule="evenodd" d="M5.06259 17.6601C5.13623 17.6404 5.21007 17.6264 5.2836 17.618C5.34086 17.6115 5.36948 17.6082 5.38554 17.5966C5.40051 17.5857 5.40947 17.5725 5.41411 17.5546C5.4191 17.5354 5.41222 17.5097 5.39845 17.4583L4.87284 15.4967C4.86193 15.456 4.85647 15.4356 4.86023 15.4179C4.86354 15.4023 4.87168 15.3882 4.8835 15.3776C4.89694 15.3655 4.91731 15.36 4.95805 15.3491L7.03687 14.7921C7.09801 14.7757 7.12858 14.7675 7.14974 14.7744C7.16916 14.7806 7.1833 14.7924 7.19295 14.8104C7.20347 14.83 7.20074 14.8634 7.19529 14.9303C7.17506 15.1783 7.19729 15.4411 7.268 15.705C7.53714 16.7094 8.40675 17.3492 9.21032 17.1339C10.0139 16.9185 10.4471 15.9297 10.178 14.9253C10.1073 14.6614 9.99511 14.4226 9.85359 14.218C9.81544 14.1628 9.79636 14.1352 9.79567 14.113C9.79504 14.0926 9.80139 14.0753 9.81507 14.0602C9.82998 14.0437 9.86055 14.0355 9.92169 14.0191L12.0002 13.4622C12.0409 13.4513 12.0613 13.4458 12.079 13.4496C12.0946 13.4529 12.1087 13.461 12.1193 13.4728C12.1314 13.4863 12.1369 13.5066 12.1478 13.5474L12.6734 15.5088C12.6871 15.5602 12.694 15.5858 12.7079 15.6C12.7209 15.6132 12.7352 15.6201 12.7536 15.6221C12.7734 15.6242 12.7998 15.6127 12.8526 15.5897C12.9204 15.5603 12.9911 15.5356 13.0645 15.5159C13.8681 15.3006 14.6941 15.7774 14.9094 16.581C15.1247 17.3846 14.6478 18.2105 13.8443 18.4259C13.7708 18.4455 13.6972 18.4594 13.6238 18.4678C13.5666 18.4744 13.538 18.4776 13.5219 18.4893C13.507 18.5002 13.498 18.5134 13.4934 18.5313C13.4884 18.5505 13.4953 18.5762 13.509 18.6276L14.0347 20.5895C14.0456 20.6303 14.0511 20.6506 14.0473 20.6683C14.044 20.6839 14.0359 20.698 14.0241 20.7086C14.0106 20.7207 13.9903 20.7262 13.9495 20.7371L11.8712 21.294C11.8101 21.3104 11.7795 21.3186 11.7583 21.3117C11.7389 21.3055 11.7248 21.2937 11.7151 21.2757C11.7046 21.2561 11.7073 21.2227 11.7128 21.1558C11.733 20.9079 11.7107 20.6451 11.6401 20.3813C11.3709 19.3769 10.5013 18.7371 9.69774 18.9524C8.89417 19.1678 8.46093 20.1566 8.73008 21.161C8.80077 21.4249 8.91288 21.6635 9.05434 21.8681C9.09249 21.9233 9.11156 21.9509 9.11224 21.9731C9.11287 21.9935 9.10652 22.0108 9.09284 22.0259C9.07794 22.0424 9.04737 22.0506 8.98624 22.067L6.90737 22.624C6.86663 22.635 6.84626 22.6404 6.82857 22.6367C6.81301 22.6334 6.7989 22.6252 6.78826 22.6134C6.77616 22.5999 6.7707 22.5796 6.75978 22.5388L6.23408 20.5769C6.22031 20.5255 6.21343 20.4998 6.19949 20.4857C6.18651 20.4725 6.17217 20.4655 6.15376 20.4636C6.13401 20.4615 6.10759 20.473 6.05474 20.496C5.98686 20.5255 5.91596 20.5503 5.84231 20.5701C5.03875 20.7854 4.21278 20.3085 3.99746 19.5049C3.78215 18.7014 4.25902 17.8754 5.06259 17.6601Z" fill="#53A8F6"/>
</g>
<defs>
<linearGradient id="paint0_linear_2556_19918" x1="4.97927" y1="3.1606" x2="7.90322" y2="14.0729" gradientUnits="userSpaceOnUse">
<stop stop-color="#336DEC"/>
<stop offset="0.5625" stop-color="#2051CF" stop-opacity="0.9"/>
<stop offset="1" stop-color="#113DB9"/>
</linearGradient>
<linearGradient id="paint1_linear_2556_19918" x1="17.0862" y1="10.1503" x2="20.0101" y2="21.0627" gradientUnits="userSpaceOnUse">
<stop stop-color="#336DEC"/>
<stop offset="0.5625" stop-color="#2051CF" stop-opacity="0.9"/>
<stop offset="1" stop-color="#113DB9"/>
</linearGradient>
<clipPath id="clip0_2556_19918">
<rect width="24" height="24" fill="white" transform="translate(0.619141)"/>
</clipPath>
</defs>
</svg>
